<?xml version="1.0" encoding="UTF-8"?><svg xmlns="http://www.w3.org/2000/svg" xmlns:xlink="http://www.w3.org/1999/xlink" viewBox="0 0 1500.86 349.88"><defs><style>.cls-1{fill:url(#Nueva_muestra_de_degrad_copia_3);}</style><linearGradient id="Nueva_muestra_de_degrad_copia_3" x1="425.92" y1="606.17" x2="1103.96" y2="-267.95" gradientUnits="userSpaceOnUse"><stop offset="0.33" stop-color="#008ac5"/><stop offset="1" stop-color="#00a5a4"/></linearGradient></defs><title>Asset 1</title><g id="Layer_2" data-name="Layer 2"><g id="Layer_1-2" data-name="Layer 1"><path class="cls-1" d="M117.32,38.71c43.13,132.62,84.87,86.17,107.45,47.8,42.13-71.62,72.31-48.36,80.06,2.26,18.47,106,64.05-2,85.57-38.55C429.7-12.3,468.46,15.1,466.14,103c-3.29,124.71-179.42,338.12-199.08,158.81-6.11-55.69-39-87.28-77.24,22.55C168.35,346,110.07,382.49,46.63,306.93-29.31,201.69,6.34,70.91,23.52,41.39,63.15-26.71,105.4,2.05,117.32,38.71ZM758.58,192.58c.68-87.35-92.09-100.59-161.9-58-47.74,29.14-41.18-14.68-36.12-88.15C563.79-.39,525.48-43.27,498,84.64c-18.82,87.55-18,170.19-1,227.91,7.58,25.63,23.12,37.33,40,37.33,7.89,0,30.2-3.63,41.16-39.27q15.22-42.66,21.42-54,18-33.55,43.95-33.56,28.79,0,28.77,42.29,0,14.07-5.64,45.66c-4.79,31.54,2.26,38.91,10.16,38.91q24.23,0,52.41-51.88C748.8,261.93,758.32,226.79,758.58,192.58Zm22.75-20.41c-3.46-43.46,16-65.39,47.92-65.39q56.94,0,56.94,102,0,41.15-5.63,74.41c-7.52,43.6-20.8,67.59-39.46,65.39C800.44,343.81,790.78,290.68,781.33,172.17ZM828,80.73c32.37-.78,42.67-21.84,41.16-41.24-1-13.17-10.56-35.48-46-32.69C807.61,8,780.66,18.86,781.31,46.44,781.58,57.56,792.5,81.57,828,80.73Zm95.7,102.88c6.73,49,45.11,43.7,59.64,79.66,9.93,24.54-15.6,38.34-51,25.57-45.54-16.41-26.66,39.78,16.84,54.43,64.07,21.57,153.86-13.63,145.71-82.57-6.35-53.56-53.71-55.93-63.21-80.65-5.18-13.45,2.89-33.8,51.7-27.05,9.69,1.34,14.05-5.24,13.14-11.56-1-7.07-13.06-14.41-35.34-24C983.19,84,916.8,133.6,923.67,183.61Zm446.9,46.64q0,57-35,89.64-31.56,29.88-81.74,29.88-54.69,0-90.76-36.07-42.86-42.84-42.86-122.91,0-78.36,28.21-138.68,24.21-51.85,44-51.85c14.28,0,25.89,18.49,21.42,54.67-8.67,70.17,36.31,68.66,52.42,69.91C1350.09,131.31,1370.57,195.29,1370.57,230.25ZM1217.23,270q8.48,11.56,23.12,11.57c25.21-.7,50.39-28.12,48.49-59.76-.63-10.51-5.51-39.51-31-38.9-23.84.58-50.58,25-49,59.75C1209.24,253.17,1211.59,262.31,1217.23,270ZM1396,173.32c-.84-43.59,16-65.4,47.92-65.4q56.94,0,56.94,102.05,0,41.15-5.63,74.41c-7.52,43.6-20.72,64-39.46,65.39C1419.79,352.47,1398.05,280,1396,173.32ZM1395.16,28c-11.33,17.53,0,37.63,13,44.51-.27,6.2-10.92,22.41-10.92,22.41,1.43,1.32,28.26-7.4,32.92-14.9,9.15,1.76,27.42,5.43,39,.19,17.71-8,23.66-29.76,16.26-47.39C1476.22,10.79,1421.54-12.84,1395.16,28Z"/></g></g></svg>